<svg id="outputsvg" xmlns="http://www.w3.org/2000/svg" width="369.72mm" height="113.93mm" viewBox="0 0 1048.02 322.95"><defs><style>.cls-1{fill:#b2cf8d;}.cls-2{fill:#9dc277;}.cls-3{fill:#bfa6e6;}.cls-4{fill:#af92df;}.cls-5{fill:#fbbc23;}.cls-6{fill:#ac6207;}.cls-7{fill:#fff;}</style></defs><path class="cls-1" d="M364.11,273.59c-.61-.91-2.49-.92-5.95-.58-.37,0-.75.09-1.13.12-16.84,1.76-34.4,8-47.56,17.14-.79.54-1.57,1.11-2.35,1.69a27.93,27.93,0,0,0-5.42,4.42c-11.06,9.82-20.1,22.86-22.87,33.64-1.43,5.3-2.62,7.6-4,7.6-2.77,0-4.28-35.08-2.14-51.62.87-6.86,1.32-8.94,3.09-8.43-.39-.24-.75-.45-1-.6-1.35-.75-4-4.24-5.71-7-1-1.62-1.59-3-1.42-3.5l-.29.24a18.67,18.67,0,0,1-.58,3.08c-2.06,8.16-4.27,24.95-4.75,37.61-.47,9.27-.79,12-1.66,12a1.14,1.14,0,0,1-1-1.19c0-2-5.86-13.06-10.14-19.08-.84-1.19-1.7-2.34-2.57-3.47a4.39,4.39,0,0,0-1.4-1.79c-.87-1.08-1.75-2.13-2.65-3.16a34.9,34.9,0,0,0-4.47-4.78,86.94,86.94,0,0,0-6.86-6.11,64.09,64.09,0,0,0-5.56-4.29,77.35,77.35,0,0,0-11.36-6.13c-9.25-4.2-20.41-7.15-26.25-6.85-2.67.15-3.71.24-4,.81a1.64,1.64,0,0,0-.12,1.07c0,.11,0,.22,0,.34.24,2.77,6.57,15.2,10.93,21.85,10.77,16.07,24.23,26.6,42.52,33.18,16.86,6,17.73,6.49,22.25,12.19,3.24,4.19,4.43,6.57,6.25,12.75,3,10,3.33,11.87,2.22,11.87h-.2l.27.12,2.46,1.08a23.93,23.93,0,0,0,3.16,1.1,30.56,30.56,0,0,0,7.72,1.11,26,26,0,0,1-2.09-3.79c-2.53-5.78-2.61-12.2-.08-16.63C282.55,334,287.3,331.52,308,325c15.13-4.83,26.29-11.56,36.82-22.17a97.18,97.18,0,0,0,10.56-12.28A71.56,71.56,0,0,0,362.53,279a26,26,0,0,0,1.3-3.3C364,275.28,364.43,274,364.11,273.59Z" transform="translate(-135.99 -49.53)"/><path class="cls-2" d="M333.61,289.33c-1.57.64-3.13,1.3-4.68,2q-4.65,2.1-9.13,4.55T311,301.11c-2.86,1.86-5.67,3.81-8.37,5.91a111.33,111.33,0,0,0-15.1,14l-.86,1c-.29.32-.56.66-.83,1l-1.66,2L282.62,327l-.79,1-.75,1.05-1.5,2.12-1.41,2.19-.7,1.09-.13.23a7.55,7.55,0,0,1-1.45,2.47,1.47,1.47,0,0,1-1,.47c-2.64,0-4.13-31.7-2.43-49a16,16,0,0,1-4.53-3.95c-1-1.24-2.08-2.57-3.25-3.72A248.94,248.94,0,0,0,262,307.37c-.47,9.27-.79,12-1.66,12a.87.87,0,0,1-.28-.05,1.13,1.13,0,0,1-.64-.63l-.69-.66-1.7-1.66-3.39-3.3c-1.15-1.09-2.32-2.15-3.47-3.23l-1.74-1.6c-.58-.54-1.15-1.08-1.75-1.6l-3.56-3.13L241.38,302l-1.82-1.52c-1.22-1-2.42-2-3.64-3l-3.73-2.92-.93-.73-.95-.71-1.9-1.4-.95-.7-.48-.35-.48-.34L224.55,289l-1-.67c-.32-.23-.64-.45-1-.66l-2-1.29-1-.64c-.33-.21-.68-.41-1-.61l-2-1.22c-1.38-.76-2.74-1.54-4.15-2.24a38.3,38.3,0,0,0-4.31-1.89,37.54,37.54,0,0,1,4,2.41c1.3.86,2.54,1.8,3.79,2.73l1.82,1.44.91.73.89.75,1.78,1.51c.3.24.58.5.87.77l.86.78,1.73,1.55.43.39.42.41.84.8,1.68,1.61.83.81.82.82,3.26,3.32c1.06,1.12,2.11,2.27,3.17,3.4l1.58,1.7,1.53,1.74,3.07,3.49c.52.57,1,1.18,1.5,1.77l1.49,1.79c1,1.19,2,2.36,3,3.56l2.89,3.64,1.44,1.82c.48.61,1,1.2,1.43,1.83l2.23,2.95a30.33,30.33,0,0,1,3.31,3.74l.35.46c3,3.92,4.15,6.34,5.9,12.29,3,10,3.33,11.87,2.22,11.87h-.2l.27.12,2.46,1.08a23.93,23.93,0,0,0,3.16,1.1,30.56,30.56,0,0,0,7.72,1.11,26,26,0,0,1-2.09-3.79c-2.5-5.7-2.61-12-.19-16.43,0-.07.07-.14.11-.2.27-.48.55-.93.85-1.37l.3-.57.57-1.11.61-1.07,1.24-2.16,1.32-2.1.66-1.06.71-1,1.41-2.06,1.5-2c.25-.33.49-.67.75-1l.78-1a107.81,107.81,0,0,1,14-14.38c2.54-2.2,5.19-4.27,7.91-6.26s5.52-3.86,8.39-5.64,5.82-3.44,8.82-5q2.25-1.17,4.55-2.24c1.54-.72,3.08-1.4,4.66-2C336.77,288.1,335.19,288.7,333.61,289.33Z" transform="translate(-135.99 -49.53)"/><path class="cls-3" d="M279.47,210.14c12.7,15.8,26,33,27.33,53.21.25,3.6.07,7.34-1.46,10.62s-4.66,6-8.27,6.15c-3.15.16-6.37-1.57-9.38-.59-4.67,1.52-5.86,8.51-10.61,9.76-3.51.93-6.85-1.86-9.17-4.66s-4.74-6.06-8.33-6.58-6.84,1.78-10.28,1.3c-3.05-.41-5.48-3-6.53-5.88a20.55,20.55,0,0,1-.65-9.14A68.89,68.89,0,0,1,279.47,210.14Z" transform="translate(-135.99 -49.53)"/><path class="cls-3" d="M276.5,215.34c-11.11,17-23.35,34.88-42.16,42.44-3.35,1.35-7,2.34-10.55,1.89s-7.13-2.58-8.41-6c-1.13-3-.48-6.55-2.34-9.1-2.88-4-9.9-3-12.56-7.07-2-3.06-.34-7.1,1.6-10.17s4.3-6.38,3.68-10c-.59-3.43-3.8-5.95-4.41-9.37-.55-3,1.15-6.14,3.57-8a20.58,20.58,0,0,1,8.49-3.44A68.9,68.9,0,0,1,276.5,215.34Z" transform="translate(-135.99 -49.53)"/><path class="cls-3" d="M270.63,214.12c-19.56-5.32-40.39-11.42-53.39-27-2.32-2.77-4.38-5.9-5.06-9.44s.26-7.58,3.07-9.85c2.46-2,6.08-2.47,7.94-5,2.89-4-.26-10.33,2.84-14.13,2.3-2.81,6.65-2.52,10.16-1.63s7.4,2.12,10.61.43,4.49-5.45,7.55-7.09c2.72-1.46,6.19-.81,8.75.92a20.65,20.65,0,0,1,5.89,7A68.87,68.87,0,0,1,270.63,214.12Z" transform="translate(-135.99 -49.53)"/><path class="cls-3" d="M270,208.17c-1-20.25-1.62-41.94,9.16-59.11,1.92-3.06,4.26-6,7.42-7.74s7.29-2.09,10.31-.12c2.64,1.73,4.23,5,7.24,6,4.67,1.51,9.74-3.45,14.32-1.67,3.38,1.32,4.45,5.54,4.68,9.16s.28,7.7,2.88,10.23,6.57,2.58,9.08,5c2.22,2.13,2.67,5.63,1.82,8.6a20.58,20.58,0,0,1-4.85,7.77A68.87,68.87,0,0,1,270,208.17Z" transform="translate(-135.99 -49.53)"/><path class="cls-3" d="M275.44,205.71c18.95-7.2,39.39-14.5,59.05-9.56,3.5.88,7,2.2,9.65,4.67s4.24,6.28,3.3,9.77c-.83,3-3.47,5.58-3.47,8.74,0,4.91,6.29,8.2,6,13.1-.21,3.63-3.89,5.95-7.26,7.29s-7.23,2.64-8.84,5.89-.42,7-1.94,10.18c-1.34,2.77-4.53,4.29-7.61,4.39a20.63,20.63,0,0,1-8.89-2.21A68.85,68.85,0,0,1,275.44,205.71Z" transform="translate(-135.99 -49.53)"/><path class="cls-4" d="M273.68,208c-13-14.22-26.46-28.23-39.5-42.55-.08-.08-.27.07-.2.17,5.44,8,10.84,16.17,16.67,24a170.79,170.79,0,0,0,19.16,22.15C271.59,213.51,275.32,209.8,273.68,208Z" transform="translate(-135.99 -49.53)"/><path class="cls-4" d="M274.55,208.1a103,103,0,0,0-21.78-32.89c-.06-.05-.25.1-.21.17a143.9,143.9,0,0,1,8.94,17.48c2.66,5.95,5.15,11.85,8.12,17.52C270.36,211.8,275.17,209.66,274.55,208.1Z" transform="translate(-135.99 -49.53)"/><path class="cls-4" d="M278,204.91a71.49,71.49,0,0,0-5.88-23,77,77,0,0,0-12.73-19.86c-.06-.08-.26.07-.21.15a84.36,84.36,0,0,1,8.87,21.33,213.26,213.26,0,0,1,4.57,22.05C272.94,207.41,278.18,206.93,278,204.91Z" transform="translate(-135.99 -49.53)"/><path class="cls-4" d="M276.17,212.42a182.16,182.16,0,0,1,6.12-25.8,153.05,153.05,0,0,1,10.2-24.69c.05-.09-.16-.22-.23-.13a132.8,132.8,0,0,0-14.09,23.35,81.29,81.29,0,0,0-7.38,26.61C270.58,214.1,275.82,214.61,276.17,212.42Z" transform="translate(-135.99 -49.53)"/><path class="cls-4" d="M278.74,210.73c8.82-14.12,17.33-28.53,26.28-42.68.06-.08-.14-.23-.21-.16-5.57,6.25-11.3,12.51-16.63,19.11A127.89,127.89,0,0,0,274,208C273,209.93,277.62,212.51,278.74,210.73Z" transform="translate(-135.99 -49.53)"/><path class="cls-4" d="M280,211.3a72.12,72.12,0,0,0,20.72-14,77.23,77.23,0,0,0,14.87-19.93c.05-.09-.16-.22-.23-.14A82.47,82.47,0,0,1,297.84,194a179.58,179.58,0,0,1-20.2,12.41C275.92,207.37,278.08,212.17,280,211.3Z" transform="translate(-135.99 -49.53)"/><path class="cls-4" d="M279.15,210.76a83.92,83.92,0,0,0,17.45,20.32,90.86,90.86,0,0,0,22.62,14c.1,0,.21-.18.12-.24a98.25,98.25,0,0,1-19.81-17,221.43,221.43,0,0,1-15.86-20.08C282.44,206,278,208.81,279.15,210.76Z" transform="translate(-135.99 -49.53)"/><path class="cls-4" d="M280.88,209.56A68.78,68.78,0,0,0,297.56,221a77.23,77.23,0,0,0,19.06,6.34c.08,0,.16-.22.08-.26a87.92,87.92,0,0,1-17.06-9.93c-5.28-3.81-10.2-7.85-15.26-11.7C283.11,204.45,279.62,208.39,280.88,209.56Z" transform="translate(-135.99 -49.53)"/><path class="cls-4" d="M284.32,212.21a126.08,126.08,0,0,1,21.31,2,106,106,0,0,1,20.81,5.95c.08,0,.19-.19.12-.24a91.8,91.8,0,0,0-20-10,56.27,56.27,0,0,0-22.48-3.15C282.18,206.93,282.53,212.19,284.32,212.21Z" transform="translate(-135.99 -49.53)"/><path class="cls-4" d="M280,208.25A145.63,145.63,0,0,1,301.51,206a119.78,119.78,0,0,1,21.76,1.36c.09,0,.15-.23.06-.26a101.29,101.29,0,0,0-21.76-5.47A59.49,59.49,0,0,0,278.83,203C277,203.46,278.25,208.56,280,208.25Z" transform="translate(-135.99 -49.53)"/><path class="cls-4" d="M274.83,209.27a120,120,0,0,0-12.12,26.19,133,133,0,0,0-5.86,28.16c0,.11.23.15.25,0a150.89,150.89,0,0,1,9.72-26.72c4-8.56,8.38-16.76,12.72-25C280.63,209.9,276.11,207.19,274.83,209.27Z" transform="translate(-135.99 -49.53)"/><path class="cls-4" d="M274.9,209.36a387.33,387.33,0,0,0,.32,48.54c0,.1.26.11.27,0,1.78-16.09,5.09-32.26,4.84-48.42C280.3,207.45,275,207.32,274.9,209.36Z" transform="translate(-135.99 -49.53)"/><path class="cls-4" d="M276.29,211.07a176.85,176.85,0,0,1,7.13,25.55,150.91,150.91,0,0,1,2.93,26.55c0,.11.25.13.26,0a131,131,0,0,0,1.13-27.27A81.07,81.07,0,0,0,281.33,209C280.37,206.89,275.54,209,276.29,211.07Z" transform="translate(-135.99 -49.53)"/><path class="cls-4" d="M277.86,212.92a88.91,88.91,0,0,1,11.2,21.48,80.49,80.49,0,0,1,4.71,24.06c0,.1.25.12.26,0a74.94,74.94,0,0,0-.8-25.39,54.5,54.5,0,0,0-11.08-23.5C280.72,207.87,276.7,211.27,277.86,212.92Z" transform="translate(-135.99 -49.53)"/><path class="cls-4" d="M275.28,207.28a68.41,68.41,0,0,0-19.43-5.69,76.32,76.32,0,0,0-20.14-.13c-.08,0-.07.25,0,.26a87.92,87.92,0,0,1,19.34,4.16c6.22,2,12.16,4.33,18.18,6.43C274.74,212.83,276.85,208,275.28,207.28Z" transform="translate(-135.99 -49.53)"/><path class="cls-4" d="M277.64,207.48a110.31,110.31,0,0,0-45.38,12.06c-.08.05,0,.28.1.25a138.76,138.76,0,0,1,22.89-4.45c7.68-.94,15.27-1.54,22.82-2.45C280,212.66,279.65,207.41,277.64,207.48Z" transform="translate(-135.99 -49.53)"/><path class="cls-4" d="M273.5,211.67A137.15,137.15,0,0,1,251,224.55a119.82,119.82,0,0,1-24.83,8.17c-.11,0-.08.27,0,.26a107.64,107.64,0,0,0,26.46-4.38A70.93,70.93,0,0,0,276.8,216C278.6,214.5,275.27,210.42,273.5,211.67Z" transform="translate(-135.99 -49.53)"/><path class="cls-4" d="M277.33,206.9A99.43,99.43,0,0,0,248,205.28,106.64,106.64,0,0,0,219.45,212c-.11,0,0,.27.08.25a115.89,115.89,0,0,1,28.69-2.57,250.21,250.21,0,0,1,28.19,2.61C278.73,212.58,279.78,207.42,277.33,206.9Z" transform="translate(-135.99 -49.53)"/><circle class="cls-5" cx="139.28" cy="156.94" r="15.74"/><path class="cls-5" d="M447.09,235.84a37.14,37.14,0,0,1-3.86-.22A86.22,86.22,0,0,1,427,231.86a88.83,88.83,0,0,1-23.32-11.72A81.73,81.73,0,0,1,381.19,196l-1.23-2.1-1.11.35.13,1.58c.08.86.51,3.29,1,5.53a23.16,23.16,0,0,1,.84,6.47,18.61,18.61,0,0,1-.68,5.52c-.39,1.68-.76,3.72-.87,4.57a22.36,22.36,0,0,0,.79,8,26,26,0,0,0,2.7,5.41.89.89,0,0,1,.21.95.83.83,0,0,1-.8.42c-1.06,0-3.58-2.37-5.11-5.32-2.31-4.44-3.09-9.58-2.37-15.71a22,22,0,0,0-.53-9.31,68.37,68.37,0,0,1-1.46-8.49c0-1.21-.39-1.35-1.5-1.45l-1.34-.09-1.31,2.43c-4.26,7.94-6.09,13.47-6.13,18.51a14.07,14.07,0,0,0,1.61,7.22c.68,1.37.78,1.82.74,1.95h0a.33.33,0,0,1-.12.06.88.88,0,0,1-.38.09,2.51,2.51,0,0,1-1.58-1c-3.62-3.77-4.59-13.18-2.25-21.91.3-1.08,1.13-3.42,1.77-5.05,1.33-3.32,1.31-3.37,1.17-3.64l-.09-.18-.18-.09s-.14-.07-2.51-.73a45.22,45.22,0,0,1-7.83-2.92,10.07,10.07,0,0,0-2.42-.93.59.59,0,0,0-.47.21,6.42,6.42,0,0,1-.78.45,26.33,26.33,0,0,0-7.76,6.62,10.43,10.43,0,0,0-2.07,5.39,12.32,12.32,0,0,0,.74,5.88c.59,1.76.52,1.82.25,2.07l-.11.09a.85.85,0,0,1-.18-.1c-1-.58-2.93-3.61-3.67-6.33a14.47,14.47,0,0,1-.38-3.52,9.71,9.71,0,0,1,.58-4,13.9,13.9,0,0,1,3.31-5.44,25.85,25.85,0,0,1,4.79-3.79c.26-.1.74-.29.8-.78s-.44-.94-1-1.39c-1.86-1.36-5.13-5.5-6.62-8.34-.25-.51-.82-1.6-1.07-2h0l-.17-.32h-.38a10.12,10.12,0,0,0-1.78.52,42.59,42.59,0,0,1-13.32,2.21,24.28,24.28,0,0,1-3.53-.24,22.47,22.47,0,0,1-5.81-1.84,15.27,15.27,0,0,1-5.42-6.12,26.69,26.69,0,0,1-2.45-10.76,30.67,30.67,0,0,1,9.66-24.19l2-1.87-1.74-1.56A37.88,37.88,0,0,0,297,119a38.93,38.93,0,0,0-6-.37,42.63,42.63,0,0,0-5.27.28,12.19,12.19,0,0,1-1.76.16c-1,0-1.27-.27-1.41-.52a1.33,1.33,0,0,1-.12-.27,1.56,1.56,0,0,1,.19-.4c.83-1.55,4.52-2.76,8.39-2.76.38,0,.76,0,1.13,0,5.95.35,11.69,2.37,18.06,6.34a45.72,45.72,0,0,1,6.27,4.7,1.73,1.73,0,0,0,1.06.63c.13,0,.43,0,2.14-1.17.84-.55,2.52-1.53,3.77-2.16,2.51-1.28,2.71-1.55,2.44-2.09a36.36,36.36,0,0,0-6.17-8.3,25.67,25.67,0,0,0-17.42-7.48c-4.39-.2-4.92-.3-5.3-.67a1,1,0,0,1-.33-.72,1.25,1.25,0,0,1,.43-.83c.54-.5,1.82-1.1,4.87-1.1A23.91,23.91,0,0,1,313.71,105a27.42,27.42,0,0,1,8.22,6,33.47,33.47,0,0,1,5.75,7.67l1.42,2.54,1.49-.39a30.61,30.61,0,0,1,6.51-.68q.57,0,1,0A24.8,24.8,0,0,1,354.85,127l1.32,1.28,2.25-.38a16,16,0,0,1,3.1-.26l1.79,0c1.9.1,3.14.2,3.33.24a1.07,1.07,0,0,0,.25,0c.8,0,.93-.53,1.79-4,4.7-19.35,16.41-38.69,30.55-50.48,8.65-7.21,17.51-12,24.32-13.18a21.67,21.67,0,0,1,3.56-.32c4.72,0,8.15,1.92,9.91,5.55,2.26,4.57,2.48,12.29.54,18.37-.5,1.59-.4,1.74-.27,1.94l.07.1.1.06a.61.61,0,0,0,.35.11,14.22,14.22,0,0,0,2.35-.67,108,108,0,0,1,14.12-3.83,40.38,40.38,0,0,1,7.13-.67,27,27,0,0,1,6.66.77c6.65,1.68,9.35,5.49,9,12.74-.27,6.26-3.43,15.3-8.24,23.6A103.77,103.77,0,0,1,462,128.2a77.44,77.44,0,0,1-9.61,9.55,94.2,94.2,0,0,1-15,9.49c-4.18,2.11-12.83,5.38-15.16,5.75-.51.08-1.14.18-1.19.76s.55.84,1.9,1.31a37.45,37.45,0,0,1,3.6,1.59,54.54,54.54,0,0,1,20.79,17.71c5.2,7.47,8.78,16.72,10.64,27.5a85.46,85.46,0,0,1,.73,20.47c-.75,6.43-2.74,10.83-5.61,12.4A12.54,12.54,0,0,1,447.09,235.84Z" transform="translate(-135.99 -49.53)"/><g id="l6reKkG6EuhUKNfd0OE7sTL"><path class="cls-6" d="M468.22,81.11a34.23,34.23,0,0,0-14-.11A108.53,108.53,0,0,0,440,84.86a12.19,12.19,0,0,1-2.18.63,5.65,5.65,0,0,1,.33-1.43c2-6.22,1.76-14.1-.56-18.82s-7.27-6.7-14.11-5.55-15.9,6.06-24.6,13.31c-14.25,11.88-26,31.31-30.74,50.8-.84,3.39-.95,3.67-1.32,3.56s-1.79-.17-3.46-.25a21.41,21.41,0,0,0-5,.23l-1.95.34-1.11-1.07a30.06,30.06,0,0,0-5.68-4.11,30.94,30.94,0,0,0-11.42-2.93,31.34,31.34,0,0,0-7.71.67l-1.05.27-1.2-2.14a34.15,34.15,0,0,0-5.84-7.79A28,28,0,0,0,314,104.5a24.36,24.36,0,0,0-12-2.81c-2.6,0-4.38.42-5.28,1.26a1.58,1.58,0,0,0-.1,2.41c.54.52,1.11.63,5.68.84a24.91,24.91,0,0,1,17,7.31,35.53,35.53,0,0,1,6.06,8.13,9.4,9.4,0,0,1-2.18,1.3c-1.26.63-3,1.64-3.83,2.2a9.65,9.65,0,0,1-1.81,1.07,1.33,1.33,0,0,1-.62-.44,45.39,45.39,0,0,0-6.4-4.8c-6.47-4-12.3-6.08-18.33-6.43-4.53-.28-9,1.09-10.08,3-.34.6-.34.73-.07,1.23.46.84,1.43,1,3.77.67a48.61,48.61,0,0,1,11.07.09,37.31,37.31,0,0,1,16.51,7.94l1.26,1.13-1.53,1.43a31.43,31.43,0,0,0-9.85,24.64,27.16,27.16,0,0,0,2.52,11,15.81,15.81,0,0,0,5.66,6.38,22.62,22.62,0,0,0,6,1.9c4.53.72,12.09-.16,17.14-2a8.3,8.3,0,0,1,1.6-.48s.52.92,1.07,2c1.53,2.93,4.88,7.15,6.79,8.55,1,.73,1,.88.37,1.13a26.61,26.61,0,0,0-5,3.94,14.43,14.43,0,0,0-3.43,5.66,10.15,10.15,0,0,0-.61,4.15,15.13,15.13,0,0,0,.4,3.67c.73,2.68,2.66,6,3.94,6.68.5.3.58.3,1-.06.57-.5.55-.84-.08-2.7a11.91,11.91,0,0,1-.71-5.62,9.79,9.79,0,0,1,2-5.11,25.55,25.55,0,0,1,7.54-6.44,4.55,4.55,0,0,0,.94-.58,7.14,7.14,0,0,1,2.2.86,46.56,46.56,0,0,0,7.93,3l2.41.69s-.51,1.45-1.2,3.17-1.49,4-1.78,5.11c-2.39,8.91-1.36,18.57,2.39,22.47,1,1.07,1.84,1.38,2.64,1s.65-.81-.34-2.8a13.51,13.51,0,0,1-1.55-7c.05-4.95,1.85-10.38,6.06-18.24l1.13-2.09.95.06c1,.09,1,.09,1,.86a67.92,67.92,0,0,0,1.47,8.61,21.57,21.57,0,0,1,.52,9.12c-.73,6.27,0,11.46,2.43,16,1.55,3,4.21,5.64,5.64,5.64a1.36,1.36,0,0,0,1.07-2.32,24.61,24.61,0,0,1-2.62-5.24,21.71,21.71,0,0,1-.76-7.74c.11-.86.49-2.89.86-4.5a19.26,19.26,0,0,0,.69-5.66,23.8,23.8,0,0,0-.85-6.6c-.49-2.14-.93-4.59-1-5.45l-.13-1.57,1.24,2.09a82.35,82.35,0,0,0,22.68,24.31,90.92,90.92,0,0,0,39.81,15.6c4.78.48,8,.16,10.13-1,3.06-1.68,5.13-6.16,5.91-12.85a85.26,85.26,0,0,0-.74-20.64c-3.77-21.84-14.27-36.93-31.75-45.64a36.35,36.35,0,0,0-3.66-1.62c-1.79-.63-1.89-.75-.82-.92,2.39-.38,11.13-3.69,15.34-5.8a96.2,96.2,0,0,0,15.13-9.56,78.91,78.91,0,0,0,9.7-9.64,104.68,104.68,0,0,0,7-10.25c4.86-8.38,8.05-17.48,8.32-23.87C478,86.91,475.16,82.87,468.22,81.11Zm-95.76,45.41c1.66-9.55,7-21.79,14.36-32.81a80.27,80.27,0,0,1,17.6-19.08c6.1-4.84,13.61-9,18.24-10.27a16.62,16.62,0,0,1,7.19-.31c3,.88,4.84,4.15,5.09,9.24a24.24,24.24,0,0,1-2.66,12.18l-1,2.12-2.18,1.21A149.77,149.77,0,0,0,409,102.09a248.31,248.31,0,0,0-20,17c-3.92,3.75-8.7,8.19-11,10.24-2.75,2.46-2.94,2.6-2.94,2.37a3.79,3.79,0,0,1,.43-1.25,8.27,8.27,0,0,1,.77-1.32,16.36,16.36,0,0,0,.86-1.79c.59-1.24,1.2-2.48,1.82-3.71a80.07,80.07,0,0,1,8.2-13.27A135.58,135.58,0,0,1,396.2,100c3-3.06,6-6,9.17-8.88l1.53-1.4,1.55-1.38a127.81,127.81,0,0,1,10.83-8.44c2.64-1.82,3.69-2.62,2.94-2.2-1,.55-8.91,5.68-11.21,7.3a131.82,131.82,0,0,0-12.26,9.57A122.65,122.65,0,0,0,388,105.2a113.36,113.36,0,0,0-9.73,12.52,65.34,65.34,0,0,0-4.76,8.26,16.57,16.57,0,0,1-1.28,2.3A10.81,10.81,0,0,1,372.46,126.52Zm6.94,57.83a18.78,18.78,0,0,1-8.09,3.14,33.09,33.09,0,0,1-9.11,0,42.58,42.58,0,0,1-10.86-4.11c-5.18-3.12-9.16-7.46-11.09-12.09-.6-1.47-.63-1.59-.29-1.8a47.39,47.39,0,0,0,8.76-6.81c2.22-2.39,3.52-5.54,3.16-7.55-.21-1.11-.88-2.56-1.15-2.47a6.05,6.05,0,0,0-.84,1.72,26,26,0,0,1-1.15,2.62c-3.52,6.05-12.38,11.67-21.44,13.58a23,23,0,0,1-6.1.56c-3.92,0-5.78-.31-7.9-1.34a11.37,11.37,0,0,1-4.34-4.46c-2.41-4.34-3.45-11.42-2.51-16.94A26.24,26.24,0,0,1,315.59,132l1.23-1.07.78.77c1,.92,3.15.44,3.39-1a2,2,0,0,0-.62-1.63c-.08-.1-.44-.41-.42-.56a39.86,39.86,0,0,1,6.6-3.65c.25,0,.49,1.17.55,1.34.4,1.27,1.21,2.29,2.66,1.89.67-.18,1.22-.4,1.34-1.13a5.09,5.09,0,0,0-.24-2.68c-.16-.38-.25-.74-.18-.78.27-.27,4.59-.57,6.95-.46,6.46.27,11.66,2.74,16.46,7.84,2.17,2.28,1.67,2.16,4.46,1.13s7.67-.08,9.14,1.82c.71,1,.83,2.58.35,4.74-.56,2.49-.37,3.08,1.36,4.73,1.3,1.24,1.45,1.47,1.6,2.42a4.71,4.71,0,0,0,.23,1.19,2.67,2.67,0,0,0,1.28-.29c1.48-.57,3-.61,3.58-.09.31.3.42.71.48,2.22.09,2.18.21,2.39,2.12,3.32a39.23,39.23,0,0,0,7.44,2.26c1.36.17,1.36.17,1.95,3.65a34.78,34.78,0,0,1,.21,11.14C387.13,176,384,181.26,379.4,184.35Zm8.32,12.17c-2,.46-2.32.42-2.81-.35a28.72,28.72,0,0,1-2.41-5,6.8,6.8,0,0,1,1.26-.84c4.63-2.64,10.19-9.1,13.43-15.57,3-5.89,4-9.58,4.22-15.15l.12-3.38,3.8-.12a79.87,79.87,0,0,0,12.17-1.41c1-.23,2-.42,2.12-.42.35,0,.48,2.83.27,5.77-.88,11.88-7.63,23.13-18.11,30.26A46,46,0,0,1,387.72,196.52Zm66.88,3.67.37-.94.28,1.67c.14.93.39,2.6.58,3.71,1.22,7.8.86,17.5-.84,22.55-1.29,3.88-3.33,5.87-6.49,6.33a22.17,22.17,0,0,1-6.58-.23,51.92,51.92,0,0,1-5.67-1.06q-3.11-.72-6.15-1.68a40.48,40.48,0,0,1-4.89-1.83c-1.17-.55-2.35-1.07-3.54-1.59a17.3,17.3,0,0,1,1.91-.63c4.65-1.38,11-3.83,14.82-6.39a42.45,42.45,0,0,0,12-12.16A52.73,52.73,0,0,0,454.6,200.19Zm-25.89-14.67c4-6.48,5.81-12.81,5.29-18.34a14.35,14.35,0,0,1-.15-2.16,26.92,26.92,0,0,1,2.45,1.7,38,38,0,0,1,9.24,9.77l1.09,1.59,0,2a25,25,0,0,1-2.83,11.09,47.48,47.48,0,0,1-21.67,22.55,42.88,42.88,0,0,1-12.36,4,22.76,22.76,0,0,1-3.4.33,3.2,3.2,0,0,1-2.72-.92,75.21,75.21,0,0,1-7.9-7.08l-2-2.16,1.32-.15a43.16,43.16,0,0,0,9.6-2.41,56.7,56.7,0,0,0,9-4.61A52.76,52.76,0,0,0,428.71,185.52Zm44.37-90.43a16.45,16.45,0,0,1-.86,5.34c-3,9.94-10,22.34-16.37,28.9a75,75,0,0,1-16.41,12.56c-1.59.92-7.16,3.58-10,4.8a79.75,79.75,0,0,1-18.15,4.9,58,58,0,0,1-8.38.5c-5.83.07-6.1,0-9.64-.44-5.54-.75-12.58-2.45-12.58-3.06,0-.25,1.18-1,2.33-1.42a99.75,99.75,0,0,1,10-2.62c3.27-.69,5.2-1,10.46-1.78a79.68,79.68,0,0,0,16-3.67c1.91-.61,3.8-1.17,4.19-1.26s.63-.21.51-.25a14.14,14.14,0,0,0-2.52.44,204.85,204.85,0,0,1-32.77,4.15c-6.08.23-8,.17-8-.34,0-1.3,8.49-5.68,19.09-9.87,4.45-1.76,10.88-4,13.08-4.48.46-.11,2.35-.57,4.19-1a111.61,111.61,0,0,1,11.84-2.3c2.5-.4,9.08-.91,13.63-1.07l4.5-.17-5.13.08c-14.72.21-31.77,2.87-44.33,6.88a22,22,0,0,1-2.35.67,10.45,10.45,0,0,1,1.37-.93c1.63-1,12.76-8.32,15.65-10.33,1-.71,3.5-2.49,5.45-4a105.4,105.4,0,0,1,14.25-9.26c1.51-.78,2.66-1.43,2.6-1.43-.29,0-4.63,2.1-8,3.92-4.33,2.31-9.43,5.41-21.37,13-14.74,9.36-19.56,12.3-23.77,14.39-2.58,1.3-3,1.32-2.53.09.31-.78,7.33-7.84,13.51-13.56,18.36-17,30.87-26,44.37-31.86A79.41,79.41,0,0,1,455,85c3.12-.49,9.26-.49,11.27,0A9.7,9.7,0,0,1,471,87.5C472.72,89.39,473.23,91.19,473.08,95.09Z" transform="translate(-135.99 -49.53)"/><g id="pOzWOFjPn"><path class="cls-6" d="M321.66,155.84c-2.15-1.09-3.1-3.2-2.91-6.45a11.88,11.88,0,0,1,3.65-8c2.16-2.07,4.15-3.06,6.24-3.08a5.18,5.18,0,0,1,4.89,3.4,10.74,10.74,0,0,1,.27,6.66,11.9,11.9,0,0,1-5.68,7.09,6.28,6.28,0,0,1-3.46.9C322.94,156.41,322.67,156.37,321.66,155.84Z" transform="translate(-135.99 -49.53)"/></g></g><path class="cls-7" d="M327.45,144.44a2.85,2.85,0,0,0,1.17-4.13c-.75-1.15-2.43-1-3.33.32a3.62,3.62,0,0,0-.73,3.1C325,144.92,325.88,145.16,327.45,144.44Z" transform="translate(-135.99 -49.53)"/><path class="cls-2" d="M490,276.59l1.83-1.83q3.82-3.52,3.82-10.25V201.06q0-6.57-3.82-10.25L490,189c-1.64-1.63-2.45-3.11-2.45-4.44q0-4.12,4.89-4.12h14.83a7.93,7.93,0,0,1,6.89,3.51l54.58,76.3V201.06q0-6.57-3.82-10.25L563.25,189c-1.74-1.73-2.6-3.21-2.6-4.44q0-4.12,5-4.12h17.43q4.9,0,4.9,4.12,0,1.85-2.6,4.44l-1.68,1.83q-3.82,3.67-3.83,10.25V279.5c0,3.77-1.93,5.65-5.81,5.65h-7.49a8.42,8.42,0,0,1-7-3.67l-52.91-73.85v56.88q0,6.74,3.83,10.25l2,1.83q2.29,2.61,2.3,4.59,0,4-4.9,4H492.61q-5.06,0-5.05-4C487.56,279.65,488.37,278.12,490,276.59Z" transform="translate(-135.99 -49.53)"/><path class="cls-2" d="M594.65,248.3q0-17.73,11.09-29T634,208.09q14.37,0,23.24,7.72a25.25,25.25,0,0,1,8.87,20c0,3.46-.84,6.17-2.53,8.1a8.71,8.71,0,0,1-6.95,2.91h-43q.76,12.84,7.34,20.1t17.74,7.27A29.55,29.55,0,0,0,658,267.26c1.94-1.42,3.52-2.14,4.74-2.14,2.14,0,3.21,1.18,3.21,3.52q0,3.21-3.82,6.58-11.46,11.46-29.51,11.46-17.13,0-27.52-10.55T594.65,248.3Zm19.11-9.93h27.83q7,0,7-6.12a16.76,16.76,0,0,0-3.9-11.09q-3.9-4.65-11.7-4.66a16.67,16.67,0,0,0-12.92,5.89Q614.83,228.27,613.76,238.37Z" transform="translate(-135.99 -49.53)"/><path class="cls-2" d="M673.15,281.18q0-2,2.45-4.28l1.68-1.84q2.9-2.9,2.9-10.24v-69q0-7-2.9-9.48l-2-2c-1.43-1.42-2.14-2.75-2.14-4,0-2.25,1.38-3.72,4.13-4.44l13.3-3.36a16.52,16.52,0,0,1,3.67-.61q4.44,0,4.44,4.58v68.2l22-17.74q5.82-4.43,5.81-6.88a5.07,5.07,0,0,0-1.75-3.21,5.21,5.21,0,0,1-1.76-3.52c0-2.54,1.73-3.82,5.2-3.82h20.18c3.26,0,4.89,1.28,4.89,3.82a4.93,4.93,0,0,1-.23,1.61,3.09,3.09,0,0,1-1.07,1.37,10.92,10.92,0,0,1-1.37,1c-.36.2-1.07.59-2.14,1.15s-1.87,1-2.37,1.29a81.79,81.79,0,0,0-12.24,8.57l-10.24,8.1,18.65,28.75a38.93,38.93,0,0,0,3.75,5,30.05,30.05,0,0,0,2.9,2.83c.77.61,1.86,1.37,3.29,2.29a18.39,18.39,0,0,1,3.9,2.67,3.84,3.84,0,0,1,1.15,2.83c0,2.86-1.63,4.28-4.9,4.28H739.82q-6.59,0-9-4.28l-20.95-33.48-11.16,9v8.41q0,7.19,3,10.24l1.53,1.84q2.15,2.44,2.14,4.28,0,4-5,4H678Q673.15,285.15,673.15,281.18Z" transform="translate(-135.99 -49.53)"/><path class="cls-2" d="M759.59,216c0-2,1.42-3.67,4.28-4.89,2-.82,3.49-1.43,4.35-1.84a14.2,14.2,0,0,0,2.91-1.91,19.39,19.39,0,0,0,3.13-3.28,19.84,19.84,0,0,0,2.53-4.13,60.06,60.06,0,0,0,2.29-5.74c.77-2.19,1.3-3.59,1.61-4.2q1.83-3.68,5.35-3.67,4.28,0,4.28,4.28v19h20.49A4.1,4.1,0,0,1,814,211a5.56,5.56,0,0,1,1.22,3.82q0,5-4.43,5H790.32V256q0,9.33,2.22,13.61t8.33,4.28q4.43,0,10.55-3.36a7.75,7.75,0,0,1,4-1.69c2.14,0,3.21,1.13,3.21,3.37q0,2.29-2.76,5.5a25.81,25.81,0,0,1-9.4,6.42,31.11,31.11,0,0,1-12.46,2.6q-22.17,0-22.17-24.77v-.3l.15-41.75h-8.1C761,219.86,759.59,218.59,759.59,216Z" transform="translate(-135.99 -49.53)"/><path class="cls-2" d="M836.86,246.16q12.24-6.72,38.84-7.64v-3.36q0-8.57-4.36-13.31c-2.9-3.16-6.86-4.74-11.85-4.74a15.43,15.43,0,0,0-8.94,2.37A11.58,11.58,0,0,0,846,224.6a15.46,15.46,0,0,1-3.37,5.13,7.93,7.93,0,0,1-6,2.37,8.25,8.25,0,0,1-5.74-2,7,7,0,0,1-2.21-5.51q0-7,9.63-11.77T861,208.09q16.37,0,24.77,7t8.41,20.26V265a7.94,7.94,0,0,0,1.45,5,6.19,6.19,0,0,0,3.14,2.29,11.71,11.71,0,0,1,3.13,1.38,2.9,2.9,0,0,1,1.45,2.6c0,1.83-1.58,3.62-4.74,5.35q-8.57,4.74-15.13,4.74-6.27,0-6.27-7.8v-5.05h-.46q-11.62,13.16-27.22,13.15-11.62,0-18.27-5.58t-6.65-15.52Q824.63,253.06,836.86,246.16Zm6.27,17.28q0,5.82,3.67,9a14.11,14.11,0,0,0,9.63,3.21,20.16,20.16,0,0,0,13.38-5q5.88-5,5.89-10.94V246.62q-16.05.76-24.31,4.67T843.13,263.44Z" transform="translate(-135.99 -49.53)"/><path class="cls-2" d="M910.5,281.18c0-1.32.81-2.75,2.45-4.28l1.68-1.84q2.89-2.74,2.9-10.24V231.94q0-6.57-2.9-9.32l-2-1.84a5.22,5.22,0,0,1-2.14-4c0-2.14,1.42-3.62,4.28-4.44l12.69-3.51a6.81,6.81,0,0,1,3.06-.62q4.43,0,4.43,4.59v12.23h.46a34.73,34.73,0,0,1,9.94-12q6.42-5,12.08-5a10.88,10.88,0,0,1,8.26,3.21,11.11,11.11,0,0,1,3,7.95,11,11,0,0,1-2.52,7.19,7.33,7.33,0,0,1-5.73,3.06c-1.63,0-3.47-1-5.51-3s-4.07-3-6.11-3q-5.05,0-9,5.2a18.9,18.9,0,0,0-3.9,11.62v24.47q0,7.19,3.06,10.24l1.68,1.84q2.44,2.3,2.45,4.28,0,4-5.05,4H915.39Q910.5,285.15,910.5,281.18Z" transform="translate(-135.99 -49.53)"/><path class="cls-2" d="M977.93,276.9l1.68-1.84q2.89-2.9,2.9-10.24v-33q0-6.72-2.9-9.48l-2-1.83q-2.29-2.14-2.29-4c0-2.24,1.42-3.72,4.28-4.43l13.45-3.37a17.24,17.24,0,0,1,3.67-.61q4.29,0,4.29,4.44v52.29q0,7.65,3.05,10.24l1.53,1.84q2.45,2.44,2.45,4.28,0,4-5,4H980.22q-4.89,0-4.89-4C975.33,280,976.19,278.53,977.93,276.9Zm1.53-90.67a9.17,9.17,0,0,1,3-7.27,11.89,11.89,0,0,1,8.11-2.67,11.65,11.65,0,0,1,8,2.67,9.17,9.17,0,0,1,3.06,7.27,9.32,9.32,0,0,1-3.06,7.41,13.23,13.23,0,0,1-16.06-.07A9.4,9.4,0,0,1,979.46,186.23Z" transform="translate(-135.99 -49.53)"/><path class="cls-2" d="M1016.15,281.18q0-2,2.45-4.28l1.68-1.84q2.91-2.9,2.91-10.24v-69q0-7-2.91-9.48l-2-2c-1.43-1.42-2.14-2.75-2.14-4,0-2.25,1.38-3.72,4.13-4.44l13.3-3.36a16.61,16.61,0,0,1,3.67-.61q4.44,0,4.44,4.58v68.2l22-17.74q5.8-4.43,5.81-6.88a5.1,5.1,0,0,0-1.76-3.21,5.21,5.21,0,0,1-1.76-3.52c0-2.54,1.73-3.82,5.2-3.82h20.18c3.26,0,4.89,1.28,4.89,3.82a4.93,4.93,0,0,1-.23,1.61,3.09,3.09,0,0,1-1.07,1.37,10.92,10.92,0,0,1-1.37,1c-.36.2-1.07.59-2.14,1.15s-1.86,1-2.37,1.29a81.79,81.79,0,0,0-12.24,8.57l-10.24,8.1,18.65,28.75a38.93,38.93,0,0,0,3.75,5,28.84,28.84,0,0,0,2.91,2.83c.76.61,1.85,1.37,3.28,2.29a18.39,18.39,0,0,1,3.9,2.67,3.84,3.84,0,0,1,1.15,2.83c0,2.86-1.63,4.28-4.89,4.28h-12.54q-6.58,0-9-4.28l-21-33.48-11.16,9v8.41q0,7.19,3.06,10.24l1.52,1.84q2.14,2.44,2.14,4.28,0,4-5,4h-22.32Q1016.15,285.15,1016.15,281.18Z" transform="translate(-135.99 -49.53)"/><path class="cls-2" d="M1117.49,246.16q12.24-6.72,38.84-7.64v-3.36q0-8.57-4.36-13.31t-11.85-4.74a15.43,15.43,0,0,0-8.94,2.37,11.64,11.64,0,0,0-4.51,5.12,15.58,15.58,0,0,1-3.36,5.13,7.94,7.94,0,0,1-6,2.37,8.23,8.23,0,0,1-5.73-2,7,7,0,0,1-2.22-5.51q0-7,9.63-11.77t22.63-4.74q16.36,0,24.77,7t8.41,20.26V265a7.94,7.94,0,0,0,1.46,5,6.17,6.17,0,0,0,3.13,2.29,11.77,11.77,0,0,1,3.14,1.38,2.92,2.92,0,0,1,1.45,2.6c0,1.83-1.58,3.62-4.74,5.35q-8.57,4.74-15.14,4.74-6.27,0-6.27-7.8v-5.05h-.46q-11.62,13.16-27.21,13.15-11.62,0-18.28-5.58t-6.65-15.52Q1105.26,253.06,1117.49,246.16Zm6.27,17.28q0,5.82,3.67,9a14.12,14.12,0,0,0,9.64,3.21,20.2,20.2,0,0,0,13.38-5q5.88-5,5.88-10.94V246.62q-16,.76-24.31,4.67T1123.76,263.44Z" transform="translate(-135.99 -49.53)"/><path class="cls-5" d="M279.24,372.47a25.38,25.38,0,0,1-12.69-3.39L148.68,301a25.47,25.47,0,0,1-12.69-22V143a25.47,25.47,0,0,1,12.69-22l117.87-68a25.47,25.47,0,0,1,25.39,0l66.29,38.27a7.34,7.34,0,1,1-7.33,12.71L284.6,65.62a10.73,10.73,0,0,0-10.71,0L156,133.67a10.76,10.76,0,0,0-5.36,9.28v136.1a10.76,10.76,0,0,0,5.36,9.28l117.87,68.05a10.73,10.73,0,0,0,10.71,0l117.87-68.05a10.75,10.75,0,0,0,5.35-9.28V249.69a7.34,7.34,0,1,1,14.67,0v29.36a25.44,25.44,0,0,1-12.69,22L291.94,369.08A25.42,25.42,0,0,1,279.24,372.47Z" transform="translate(-135.99 -49.53)"/></svg>